# xmcd CD database file
#
# Track frame offsets:
#	225
#	23759
#	45836
#	70844
#	99391
#	117593
#	136385
#	159731
#	177936
#	201324
#	226668
#	250606
#	272630
#	295723
#	314885
#	338483
#
# Disc length: 4767 seconds
#
# Revision: 0
# Processed by: cddbd v1.5.2PL0 Copyright (c) Steve Scherf et al.
# Submitted via: CDex 1.70beta2
#
DISCID=de129c10
DTITLE=salsa moderna - A Taste Of New Wave Latin Flavours
DYEAR=1998
DGENRE=Salsa
TTITLE0=Mimi Ibarra Duele
TTITLE1=Tito Rojas Por Esa Mujar
TTITLE2=Tito Gomez Volver
TTITLE3=Roberto Roena Mi Mmbo Pide Campana
TTITLE4=Willie Rosario Esa Muneca
TTITLE5=Orquesta Mulenze A Mi Me Huele
TTITLE6=Maelo Amar Sin Condicion
TTITLE7=Ramon Rodriguez El Dulcero
TTITLE8=Primera Clase Llora Corazón
TTITLE9=Ricardo Vizuete Esa Mujer
TTITLE10=Puerto Rican Power La Feria De Cali
TTITLE11=Tito Allen Que Se Sepa
TTITLE12=Primi Cruz La Misma Química
TTITLE13=Pedro Conga Me Encontraras
TTITLE14=Conjunto Chaney Como Te Va 'Ganando Sensibilidad'
TTITLE15=Kittin Si Dependiera De Mi
EXTD=YEAR: 1998
EXTT0=
EXTT1=
EXTT2=
EXTT3=
EXTT4=
EXTT5=
EXTT6=
EXTT7=
EXTT8=
EXTT9=
EXTT10=
EXTT11=
EXTT12=
EXTT13=
EXTT14=
EXTT15=
PLAYORDER=
